<svg class="diagram-root" style="background: #f5f6f6" xmlns="http://www.w3.org/2000/svg" xmlns:xlink="http://www.w3.org/1999/xlink"><style>.diagram-root { font-family: "Helvetica Neue", sans-serif; font-size: 12px; } .t { overflow: visible; } .t-bg { y: 40; fill: #fff;   } .th { fill: #005aa0;   } .tht { fill: #fff; font-size: 14px;  } .tf { fill: #323c46; overflow: visible; } .tf.pk { fill: #005aa0; font-weight: bold; } .tf.fk { font-weight: bold; } .ty { fill: #adb1b5; font-weight: normal; text-anchor: end; } .r { fill: transparent; stroke: #c3c3c3; stroke-width: 1; } .l { stroke: 1; } .i { fill: #c2c7ce; stroke: #c2c7ce; } .i.ix { fill: #afb3b6; stroke: #000; } .fa { fill: transparent; overflow: visible; } .fa .bg.hover { fill: #f7f7f7; } .c { cy: 12; r: 4; stroke: #d2d2dc; fill: #d2d2dc; } .hr { fill: transparent; stroke: #323c46; stroke-opacity: 0.035; stroke-width: 13; } .dc { stroke: #fa5a3c; fill: #fa5a3c; } .x { stroke: white; stroke-width: 1; } .hl .th { fill: #1b9bff; } .hl .tht {  } .fhl .bg { fill: #e7f4ff; } .fhls .bg {  } .r.hl { stroke: #1b9bff; } .dim { opacity: 0.25; }</style><g class="drawing-wrapper" transform="translate(-12, 12) scale(1,1)"><g class="rs"><path d="M 166 125 m -1, 0 a 1,1 0 1,0 2,0 a 1,1 0 1,0 -2,0 M 166 125 m -0.5, 0 a 0.5,0.5 0 1,0 1,0 a 0.5,0.5 0 1,0 -1,0  M166 125 L166 125 178 125 M 166 131 m -1, 0 a 1,1 0 1,0 2,0 a 1,1 0 1,0 -2,0 M 166 131 m -0.5, 0 a 0.5,0.5 0 1,0 1,0 a 0.5,0.5 0 1,0 -1,0  M166 131 L166 131 173 125 166 119 M 166 119 m -1, 0 a 1,1 0 1,0 2,0 a 1,1 0 1,0 -2,0 M 166 119 m -0.5, 0 a 0.5,0.5 0 1,0 1,0 a 0.5,0.5 0 1,0 -1,0  M178 125 Q 250.5 125, 323 123.5 T 468 122 M 480 122 m -1, 0 a 1,1 0 1,0 2,0 a 1,1 0 1,0 -2,0 M 480 122 m -0.5, 0 a 0.5,0.5 0 1,0 1,0 a 0.5,0.5 0 1,0 -1,0  M480 122 L480 122 468 122 M474 128 L474 128 474 116" id="h759334691" class="r"></path><path d="M 166 150 m -1, 0 a 1,1 0 1,0 2,0 a 1,1 0 1,0 -2,0 M 166 150 m -0.5, 0 a 0.5,0.5 0 1,0 1,0 a 0.5,0.5 0 1,0 -1,0  M166 150 L166 150 178 150 M 166 156 m -1, 0 a 1,1 0 1,0 2,0 a 1,1 0 1,0 -2,0 M 166 156 m -0.5, 0 a 0.5,0.5 0 1,0 1,0 a 0.5,0.5 0 1,0 -1,0  M166 156 L166 156 173 150 166 144 M 166 144 m -1, 0 a 1,1 0 1,0 2,0 a 1,1 0 1,0 -2,0 M 166 144 m -0.5, 0 a 0.5,0.5 0 1,0 1,0 a 0.5,0.5 0 1,0 -1,0  M178 150 Q 250.5 150, 323 136 T 468 122 M 480 122 m -1, 0 a 1,1 0 1,0 2,0 a 1,1 0 1,0 -2,0 M 480 122 m -0.5, 0 a 0.5,0.5 0 1,0 1,0 a 0.5,0.5 0 1,0 -1,0  M480 122 L480 122 468 122 M474 128 L474 128 474 116" id="h1548051963" class="r"></path><path d="M 166 175 m -1, 0 a 1,1 0 1,0 2,0 a 1,1 0 1,0 -2,0 M 166 175 m -0.5, 0 a 0.5,0.5 0 1,0 1,0 a 0.5,0.5 0 1,0 -1,0  M166 175 L166 175 178 175 M 166 181 m -1, 0 a 1,1 0 1,0 2,0 a 1,1 0 1,0 -2,0 M 166 181 m -0.5, 0 a 0.5,0.5 0 1,0 1,0 a 0.5,0.5 0 1,0 -1,0  M166 181 L166 181 173 175 166 169 M 166 169 m -1, 0 a 1,1 0 1,0 2,0 a 1,1 0 1,0 -2,0 M 166 169 m -0.5, 0 a 0.5,0.5 0 1,0 1,0 a 0.5,0.5 0 1,0 -1,0  M178 175 Q 243.25 175, 308.5 242 T 439 309 M 451 309 m -1, 0 a 1,1 0 1,0 2,0 a 1,1 0 1,0 -2,0 M 451 309 m -0.5, 0 a 0.5,0.5 0 1,0 1,0 a 0.5,0.5 0 1,0 -1,0  M451 309 L451 309 439 309 M445 315 L445 315 445 303" id="h2820557199" class="r"></path><path d="M 166 200 m -1, 0 a 1,1 0 1,0 2,0 a 1,1 0 1,0 -2,0 M 166 200 m -0.5, 0 a 0.5,0.5 0 1,0 1,0 a 0.5,0.5 0 1,0 -1,0  M166 200 L166 200 178 200 M 166 206 m -1, 0 a 1,1 0 1,0 2,0 a 1,1 0 1,0 -2,0 M 166 206 m -0.5, 0 a 0.5,0.5 0 1,0 1,0 a 0.5,0.5 0 1,0 -1,0  M166 206 L166 206 173 200 166 194 M 166 194 m -1, 0 a 1,1 0 1,0 2,0 a 1,1 0 1,0 -2,0 M 166 194 m -0.5, 0 a 0.5,0.5 0 1,0 1,0 a 0.5,0.5 0 1,0 -1,0  M178 200 Q 253.75 200, 329.5 360.5 T 481 521 M 493 521 m -1, 0 a 1,1 0 1,0 2,0 a 1,1 0 1,0 -2,0 M 493 521 m -0.5, 0 a 0.5,0.5 0 1,0 1,0 a 0.5,0.5 0 1,0 -1,0  M493 521 L493 521 481 521 M487 527 L487 527 487 515" id="h3528030349" class="r"></path></g><g class="hrs"></g><g class="ts"><svg width="132" height="200" x="34" y="18" id="h3214279780" class="t"><rect height="40" width="132" class="th"></rect><text x="13" y="25" class="tht">flight_data</text><rect height="160" width="132" class="t-bg" y="40"></rect><text x="13" y="61" class="tf pk">flight_id<tspan x="119" class="ty">INT</tspan></text><path d="M7,14A2,2 0 0,1 5,12A2,2 0 0,1 7,10A2,2 0 0,1 9,12A2,2 0 0,1 7,14M12.65,10C11.83,7.67 9.61,6 7, 6A6, 6 0 0, 0 1, 12A6, 6 0 0, 0 7, 18C9.61, 18 11.83, 16.33 12.65, 14H17V18H21V14H23V10H12.65Z" class="i pk" transform="translate(80, 48) scale(0.65)"></path><text x="13" y="86" class="tf">fl_num<tspan x="119" class="ty">INT</tspan></text><text x="13" y="111" class="tf fk">origin<tspan x="119" class="ty">INT</tspan></text><text x="13" y="136" class="tf fk">dest<tspan x="119" class="ty">INT</tspan></text><text x="13" y="161" class="tf fk">flight_status<tspan x="119" class="ty">INT</tspan></text><text x="13" y="186" class="tf fk">weekday<tspan x="119" class="ty">INT</tspan></text></svg><svg width="137" height="100" x="480" y="40" id="h2255944857" class="t"><rect height="40" width="137" class="th"></rect><text x="13" y="25" class="tht">airports</text><rect height="60" width="137" class="t-bg" y="40"></rect><text x="13" y="61" class="tf">airport<tspan x="124" class="ty">VARCHAR</tspan></text><text x="13" y="86" class="tf pk">airport_id<tspan x="124" class="ty">INT</tspan></text><path d="M7,14A2,2 0 0,1 5,12A2,2 0 0,1 7,10A2,2 0 0,1 9,12A2,2 0 0,1 7,14M12.65,10C11.83,7.67 9.61,6 7, 6A6, 6 0 0, 0 1, 12A6, 6 0 0, 0 7, 18C9.61, 18 11.83, 16.33 12.65, 14H17V18H21V14H23V10H12.65Z" class="i pk" transform="translate(85, 73) scale(0.65)"></path></svg><svg width="169" height="100" x="451" y="227" id="h117597173" class="t"><rect height="40" width="169" class="th"></rect><text x="13" y="25" class="tht">flight_status</text><rect height="60" width="169" class="t-bg" y="40"></rect><text x="13" y="61" class="tf">flight_status<tspan x="156" class="ty">INT</tspan></text><text x="13" y="86" class="tf pk">flight_status_id<tspan x="156" class="ty">INT</tspan></text><path d="M7,14A2,2 0 0,1 5,12A2,2 0 0,1 7,10A2,2 0 0,1 9,12A2,2 0 0,1 7,14M12.65,10C11.83,7.67 9.61,6 7, 6A6, 6 0 0, 0 1, 12A6, 6 0 0, 0 7, 18C9.61, 18 11.83, 16.33 12.65, 14H17V18H21V14H23V10H12.65Z" class="i pk" transform="translate(117, 73) scale(0.65)"></path></svg><svg width="150" height="100" x="493" y="439" id="h957780787" class="t"><rect height="40" width="150" class="th"></rect><text x="13" y="25" class="tht">days_of_the_week</text><rect height="60" width="150" class="t-bg" y="40"></rect><text x="13" y="61" class="tf">weekday<tspan x="137" class="ty">VARCHAR</tspan></text><text x="13" y="86" class="tf pk">weekday_id<tspan x="137" class="ty">INT</tspan></text><path d="M7,14A2,2 0 0,1 5,12A2,2 0 0,1 7,10A2,2 0 0,1 9,12A2,2 0 0,1 7,14M12.65,10C11.83,7.67 9.61,6 7, 6A6, 6 0 0, 0 1, 12A6, 6 0 0, 0 7, 18C9.61, 18 11.83, 16.33 12.65, 14H17V18H21V14H23V10H12.65Z" class="i pk" transform="translate(98, 73) scale(0.65)"></path></svg></g></g></svg>