<svg class="diagram-root" style="background: #f5f6f6" xmlns="http://www.w3.org/2000/svg" xmlns:xlink="http://www.w3.org/1999/xlink"><style>.diagram-root { font-family: "Helvetica Neue", sans-serif; font-size: 12px; } .t { overflow: visible; } .t-bg { y: 40; fill: #fff;   } .th { fill: #005aa0;   } .tht { fill: #fff; font-size: 14px;  } .tf { fill: #323c46; overflow: visible; } .tf.pk { fill: #005aa0; font-weight: bold; } .tf.fk { font-weight: bold; } .ty { fill: #adb1b5; font-weight: normal; text-anchor: end; } .r { fill: transparent; stroke: #c3c3c3; stroke-width: 1; } .l { stroke: 1; } .i { fill: #c2c7ce; stroke: #c2c7ce; } .i.ix { fill: #afb3b6; stroke: #000; } .fa { fill: transparent; overflow: visible; } .fa .bg.hover { fill: #f7f7f7; } .c { cy: 12; r: 4; stroke: #d2d2dc; fill: #d2d2dc; } .hr { fill: transparent; stroke: #323c46; stroke-opacity: 0.035; stroke-width: 13; } .dc { stroke: #fa5a3c; fill: #fa5a3c; } .x { stroke: white; stroke-width: 1; } .hl .th { fill: #1b9bff; } .hl .tht {  } .fhl .bg { fill: #e7f4ff; } .fhls .bg {  } .r.hl { stroke: #1b9bff; } .dim { opacity: 0.25; }</style><g class="drawing-wrapper" transform="translate(1081.44, 183) scale(1,1)"><g class="rs"></g><g class="hrs"></g><g class="ts"><svg width="234" height="750" x="-1059.44" y="-153" id="h1796662391" class="t"><rect height="40" width="234" class="th"></rect><text x="13" y="25" class="tht">Flight_Data_2009</text><rect height="710" width="234" class="t-bg" y="40"></rect><text x="13" y="61" class="tf">FL_DATE<tspan x="221" class="ty">DATE</tspan></text><text x="13" y="86" class="tf">OP_CARRIER<tspan x="221" class="ty">VARCHAR</tspan></text><text x="13" y="111" class="tf">OP_CARRIER_FL_NUM<tspan x="221" class="ty">INT</tspan></text><text x="13" y="136" class="tf">ORIGIN<tspan x="221" class="ty">VARCHAR</tspan></text><text x="13" y="161" class="tf">DEST<tspan x="221" class="ty">VARCHAR</tspan></text><text x="13" y="186" class="tf">CRS_DEP_TIME<tspan x="221" class="ty">INT</tspan></text><text x="13" y="211" class="tf">DEP_TIME<tspan x="221" class="ty">INT</tspan></text><text x="13" y="236" class="tf">DEP_DELAY<tspan x="221" class="ty">INT</tspan></text><text x="13" y="261" class="tf">TAXI_OUT<tspan x="221" class="ty">INT</tspan></text><text x="13" y="286" class="tf">WHEELS_OFF<tspan x="221" class="ty">INT</tspan></text><text x="13" y="311" class="tf">WHEELS_ON<tspan x="221" class="ty">INT</tspan></text><text x="13" y="336" class="tf">TAXI_IN<tspan x="221" class="ty">INT</tspan></text><text x="13" y="361" class="tf">CRS_ARR_TIME<tspan x="221" class="ty">INT</tspan></text><text x="13" y="386" class="tf">ARR_TIME<tspan x="221" class="ty">INT</tspan></text><text x="13" y="411" class="tf">ARR_DELAY<tspan x="221" class="ty">INT</tspan></text><text x="13" y="436" class="tf">CANCELLED<tspan x="221" class="ty">INT</tspan></text><text x="13" y="461" class="tf">CANCELLATION_CODE<tspan x="221" class="ty">VARCHAR</tspan></text><text x="13" y="486" class="tf">DIVERTED<tspan x="221" class="ty">INT</tspan></text><text x="13" y="511" class="tf">CRS_ELAPSED_TIME<tspan x="221" class="ty">INT</tspan></text><text x="13" y="536" class="tf">ACTUAL_ELAPSED_TIME<tspan x="221" class="ty">INT</tspan></text><text x="13" y="561" class="tf">AIR_TIME<tspan x="221" class="ty">INT</tspan></text><text x="13" y="586" class="tf">DISTANCE<tspan x="221" class="ty">INT</tspan></text><text x="13" y="611" class="tf">CARRIER_DELAY<tspan x="221" class="ty">INT</tspan></text><text x="13" y="636" class="tf">WEATHER_DELAY<tspan x="221" class="ty">INT</tspan></text><text x="13" y="661" class="tf">NAS_DELAY<tspan x="221" class="ty">INT</tspan></text><text x="13" y="686" class="tf">SECURITY_DELAY<tspan x="221" class="ty">INT</tspan></text><text x="13" y="711" class="tf">LATE_AIRCRAFT_DELAY<tspan x="221" class="ty">INT</tspan></text><text x="13" y="736" class="tf">UNNAMED:27<tspan x="221" class="ty">VARCHAR</tspan></text></svg><svg width="234" height="750" x="-727.67" y="-143.66" id="h3542864599" class="t"><rect height="40" width="234" class="th"></rect><text x="13" y="25" class="tht">Flight_Data_2010</text><rect height="710" width="234" class="t-bg" y="40"></rect><text x="13" y="61" class="tf">FL_DATE<tspan x="221" class="ty">DATE</tspan></text><text x="13" y="86" class="tf">OP_CARRIER<tspan x="221" class="ty">VARCHAR</tspan></text><text x="13" y="111" class="tf">OP_CARRIER_FL_NUM<tspan x="221" class="ty">INT</tspan></text><text x="13" y="136" class="tf">ORIGIN<tspan x="221" class="ty">VARCHAR</tspan></text><text x="13" y="161" class="tf">DEST<tspan x="221" class="ty">VARCHAR</tspan></text><text x="13" y="186" class="tf">CRS_DEP_TIME<tspan x="221" class="ty">INT</tspan></text><text x="13" y="211" class="tf">DEP_TIME<tspan x="221" class="ty">INT</tspan></text><text x="13" y="236" class="tf">DEP_DELAY<tspan x="221" class="ty">INT</tspan></text><text x="13" y="261" class="tf">TAXI_OUT<tspan x="221" class="ty">INT</tspan></text><text x="13" y="286" class="tf">WHEELS_OFF<tspan x="221" class="ty">INT</tspan></text><text x="13" y="311" class="tf">WHEELS_ON<tspan x="221" class="ty">INT</tspan></text><text x="13" y="336" class="tf">TAXI_IN<tspan x="221" class="ty">INT</tspan></text><text x="13" y="361" class="tf">CRS_ARR_TIME<tspan x="221" class="ty">INT</tspan></text><text x="13" y="386" class="tf">ARR_TIME<tspan x="221" class="ty">INT</tspan></text><text x="13" y="411" class="tf">ARR_DELAY<tspan x="221" class="ty">INT</tspan></text><text x="13" y="436" class="tf">CANCELLED<tspan x="221" class="ty">INT</tspan></text><text x="13" y="461" class="tf">CANCELLATION_CODE<tspan x="221" class="ty">VARCHAR</tspan></text><text x="13" y="486" class="tf">DIVERTED<tspan x="221" class="ty">INT</tspan></text><text x="13" y="511" class="tf">CRS_ELAPSED_TIME<tspan x="221" class="ty">INT</tspan></text><text x="13" y="536" class="tf">ACTUAL_ELAPSED_TIME<tspan x="221" class="ty">INT</tspan></text><text x="13" y="561" class="tf">AIR_TIME<tspan x="221" class="ty">INT</tspan></text><text x="13" y="586" class="tf">DISTANCE<tspan x="221" class="ty">INT</tspan></text><text x="13" y="611" class="tf">CARRIER_DELAY<tspan x="221" class="ty">INT</tspan></text><text x="13" y="636" class="tf">WEATHER_DELAY<tspan x="221" class="ty">INT</tspan></text><text x="13" y="661" class="tf">NAS_DELAY<tspan x="221" class="ty">INT</tspan></text><text x="13" y="686" class="tf">SECURITY_DELAY<tspan x="221" class="ty">INT</tspan></text><text x="13" y="711" class="tf">LATE_AIRCRAFT_DELAY<tspan x="221" class="ty">INT</tspan></text><text x="13" y="736" class="tf">UNNAMED:27<tspan x="221" class="ty">VARCHAR</tspan></text></svg><svg width="234" height="750" x="-270" y="-137.22" id="h3026906208" class="t"><rect height="40" width="234" class="th"></rect><text x="13" y="25" class="tht">Flight_Data_2011</text><rect height="710" width="234" class="t-bg" y="40"></rect><text x="13" y="61" class="tf">FL_DATE<tspan x="221" class="ty">DATE</tspan></text><text x="13" y="86" class="tf">OP_CARRIER<tspan x="221" class="ty">VARCHAR</tspan></text><text x="13" y="111" class="tf">OP_CARRIER_FL_NUM<tspan x="221" class="ty">INT</tspan></text><text x="13" y="136" class="tf">ORIGIN<tspan x="221" class="ty">VARCHAR</tspan></text><text x="13" y="161" class="tf">DEST<tspan x="221" class="ty">VARCHAR</tspan></text><text x="13" y="186" class="tf">CRS_DEP_TIME<tspan x="221" class="ty">INT</tspan></text><text x="13" y="211" class="tf">DEP_TIME<tspan x="221" class="ty">INT</tspan></text><text x="13" y="236" class="tf">DEP_DELAY<tspan x="221" class="ty">INT</tspan></text><text x="13" y="261" class="tf">TAXI_OUT<tspan x="221" class="ty">INT</tspan></text><text x="13" y="286" class="tf">WHEELS_OFF<tspan x="221" class="ty">INT</tspan></text><text x="13" y="311" class="tf">WHEELS_ON<tspan x="221" class="ty">INT</tspan></text><text x="13" y="336" class="tf">TAXI_IN<tspan x="221" class="ty">INT</tspan></text><text x="13" y="361" class="tf">CRS_ARR_TIME<tspan x="221" class="ty">INT</tspan></text><text x="13" y="386" class="tf">ARR_TIME<tspan x="221" class="ty">INT</tspan></text><text x="13" y="411" class="tf">ARR_DELAY<tspan x="221" class="ty">INT</tspan></text><text x="13" y="436" class="tf">CANCELLED<tspan x="221" class="ty">INT</tspan></text><text x="13" y="461" class="tf">CANCELLATION_CODE<tspan x="221" class="ty">VARCHAR</tspan></text><text x="13" y="486" class="tf">DIVERTED<tspan x="221" class="ty">INT</tspan></text><text x="13" y="511" class="tf">CRS_ELAPSED_TIME<tspan x="221" class="ty">INT</tspan></text><text x="13" y="536" class="tf">ACTUAL_ELAPSED_TIME<tspan x="221" class="ty">INT</tspan></text><text x="13" y="561" class="tf">AIR_TIME<tspan x="221" class="ty">INT</tspan></text><text x="13" y="586" class="tf">DISTANCE<tspan x="221" class="ty">INT</tspan></text><text x="13" y="611" class="tf">CARRIER_DELAY<tspan x="221" class="ty">INT</tspan></text><text x="13" y="636" class="tf">WEATHER_DELAY<tspan x="221" class="ty">INT</tspan></text><text x="13" y="661" class="tf">NAS_DELAY<tspan x="221" class="ty">INT</tspan></text><text x="13" y="686" class="tf">SECURITY_DELAY<tspan x="221" class="ty">INT</tspan></text><text x="13" y="711" class="tf">LATE_AIRCRAFT_DELAY<tspan x="221" class="ty">INT</tspan></text><text x="13" y="736" class="tf">UNNAMED:27<tspan x="221" class="ty">VARCHAR</tspan></text></svg><svg width="234" height="750" x="65" y="-137.67" id="h3153352977" class="t"><rect height="40" width="234" class="th"></rect><text x="13" y="25" class="tht">Flight_Data_2012</text><rect height="710" width="234" class="t-bg" y="40"></rect><text x="13" y="61" class="tf">FL_DATE<tspan x="221" class="ty">DATE</tspan></text><text x="13" y="86" class="tf">OP_CARRIER<tspan x="221" class="ty">VARCHAR</tspan></text><text x="13" y="111" class="tf">OP_CARRIER_FL_NUM<tspan x="221" class="ty">INT</tspan></text><text x="13" y="136" class="tf">ORIGIN<tspan x="221" class="ty">VARCHAR</tspan></text><text x="13" y="161" class="tf">DEST<tspan x="221" class="ty">VARCHAR</tspan></text><text x="13" y="186" class="tf">CRS_DEP_TIME<tspan x="221" class="ty">INT</tspan></text><text x="13" y="211" class="tf">DEP_TIME<tspan x="221" class="ty">INT</tspan></text><text x="13" y="236" class="tf">DEP_DELAY<tspan x="221" class="ty">INT</tspan></text><text x="13" y="261" class="tf">TAXI_OUT<tspan x="221" class="ty">INT</tspan></text><text x="13" y="286" class="tf">WHEELS_OFF<tspan x="221" class="ty">INT</tspan></text><text x="13" y="311" class="tf">WHEELS_ON<tspan x="221" class="ty">INT</tspan></text><text x="13" y="336" class="tf">TAXI_IN<tspan x="221" class="ty">INT</tspan></text><text x="13" y="361" class="tf">CRS_ARR_TIME<tspan x="221" class="ty">INT</tspan></text><text x="13" y="386" class="tf">ARR_TIME<tspan x="221" class="ty">INT</tspan></text><text x="13" y="411" class="tf">ARR_DELAY<tspan x="221" class="ty">INT</tspan></text><text x="13" y="436" class="tf">CANCELLED<tspan x="221" class="ty">INT</tspan></text><text x="13" y="461" class="tf">CANCELLATION_CODE<tspan x="221" class="ty">VARCHAR</tspan></text><text x="13" y="486" class="tf">DIVERTED<tspan x="221" class="ty">INT</tspan></text><text x="13" y="511" class="tf">CRS_ELAPSED_TIME<tspan x="221" class="ty">INT</tspan></text><text x="13" y="536" class="tf">ACTUAL_ELAPSED_TIME<tspan x="221" class="ty">INT</tspan></text><text x="13" y="561" class="tf">AIR_TIME<tspan x="221" class="ty">INT</tspan></text><text x="13" y="586" class="tf">DISTANCE<tspan x="221" class="ty">INT</tspan></text><text x="13" y="611" class="tf">CARRIER_DELAY<tspan x="221" class="ty">INT</tspan></text><text x="13" y="636" class="tf">WEATHER_DELAY<tspan x="221" class="ty">INT</tspan></text><text x="13" y="661" class="tf">NAS_DELAY<tspan x="221" class="ty">INT</tspan></text><text x="13" y="686" class="tf">SECURITY_DELAY<tspan x="221" class="ty">INT</tspan></text><text x="13" y="711" class="tf">LATE_AIRCRAFT_DELAY<tspan x="221" class="ty">INT</tspan></text><text x="13" y="736" class="tf">UNNAMED:27<tspan x="221" class="ty">VARCHAR</tspan></text></svg><svg width="234" height="750" x="418" y="-143" id="h2599338986" class="t"><rect height="40" width="234" class="th"></rect><text x="13" y="25" class="tht">Flight_Data_2013</text><rect height="710" width="234" class="t-bg" y="40"></rect><text x="13" y="61" class="tf">FL_DATE<tspan x="221" class="ty">DATE</tspan></text><text x="13" y="86" class="tf">OP_CARRIER<tspan x="221" class="ty">VARCHAR</tspan></text><text x="13" y="111" class="tf">OP_CARRIER_FL_NUM<tspan x="221" class="ty">INT</tspan></text><text x="13" y="136" class="tf">ORIGIN<tspan x="221" class="ty">VARCHAR</tspan></text><text x="13" y="161" class="tf">DEST<tspan x="221" class="ty">VARCHAR</tspan></text><text x="13" y="186" class="tf">CRS_DEP_TIME<tspan x="221" class="ty">INT</tspan></text><text x="13" y="211" class="tf">DEP_TIME<tspan x="221" class="ty">INT</tspan></text><text x="13" y="236" class="tf">DEP_DELAY<tspan x="221" class="ty">INT</tspan></text><text x="13" y="261" class="tf">TAXI_OUT<tspan x="221" class="ty">INT</tspan></text><text x="13" y="286" class="tf">WHEELS_OFF<tspan x="221" class="ty">INT</tspan></text><text x="13" y="311" class="tf">WHEELS_ON<tspan x="221" class="ty">INT</tspan></text><text x="13" y="336" class="tf">TAXI_IN<tspan x="221" class="ty">INT</tspan></text><text x="13" y="361" class="tf">CRS_ARR_TIME<tspan x="221" class="ty">INT</tspan></text><text x="13" y="386" class="tf">ARR_TIME<tspan x="221" class="ty">INT</tspan></text><text x="13" y="411" class="tf">ARR_DELAY<tspan x="221" class="ty">INT</tspan></text><text x="13" y="436" class="tf">CANCELLED<tspan x="221" class="ty">INT</tspan></text><text x="13" y="461" class="tf">CANCELLATION_CODE<tspan x="221" class="ty">VARCHAR</tspan></text><text x="13" y="486" class="tf">DIVERTED<tspan x="221" class="ty">INT</tspan></text><text x="13" y="511" class="tf">CRS_ELAPSED_TIME<tspan x="221" class="ty">INT</tspan></text><text x="13" y="536" class="tf">ACTUAL_ELAPSED_TIME<tspan x="221" class="ty">INT</tspan></text><text x="13" y="561" class="tf">AIR_TIME<tspan x="221" class="ty">INT</tspan></text><text x="13" y="586" class="tf">DISTANCE<tspan x="221" class="ty">INT</tspan></text><text x="13" y="611" class="tf">CARRIER_DELAY<tspan x="221" class="ty">INT</tspan></text><text x="13" y="636" class="tf">WEATHER_DELAY<tspan x="221" class="ty">INT</tspan></text><text x="13" y="661" class="tf">NAS_DELAY<tspan x="221" class="ty">INT</tspan></text><text x="13" y="686" class="tf">SECURITY_DELAY<tspan x="221" class="ty">INT</tspan></text><text x="13" y="711" class="tf">LATE_AIRCRAFT_DELAY<tspan x="221" class="ty">INT</tspan></text><text x="13" y="736" class="tf">UNNAMED:27<tspan x="221" class="ty">VARCHAR</tspan></text></svg><svg width="234" height="750" x="741" y="-139.33" id="h51804137" class="t"><rect height="40" width="234" class="th"></rect><text x="13" y="25" class="tht">Flight_Data_2014</text><rect height="710" width="234" class="t-bg" y="40"></rect><text x="13" y="61" class="tf">FL_DATE<tspan x="221" class="ty">DATE</tspan></text><text x="13" y="86" class="tf">OP_CARRIER<tspan x="221" class="ty">VARCHAR</tspan></text><text x="13" y="111" class="tf">OP_CARRIER_FL_NUM<tspan x="221" class="ty">INT</tspan></text><text x="13" y="136" class="tf">ORIGIN<tspan x="221" class="ty">VARCHAR</tspan></text><text x="13" y="161" class="tf">DEST<tspan x="221" class="ty">VARCHAR</tspan></text><text x="13" y="186" class="tf">CRS_DEP_TIME<tspan x="221" class="ty">INT</tspan></text><text x="13" y="211" class="tf">DEP_TIME<tspan x="221" class="ty">INT</tspan></text><text x="13" y="236" class="tf">DEP_DELAY<tspan x="221" class="ty">INT</tspan></text><text x="13" y="261" class="tf">TAXI_OUT<tspan x="221" class="ty">INT</tspan></text><text x="13" y="286" class="tf">WHEELS_OFF<tspan x="221" class="ty">INT</tspan></text><text x="13" y="311" class="tf">WHEELS_ON<tspan x="221" class="ty">INT</tspan></text><text x="13" y="336" class="tf">TAXI_IN<tspan x="221" class="ty">INT</tspan></text><text x="13" y="361" class="tf">CRS_ARR_TIME<tspan x="221" class="ty">INT</tspan></text><text x="13" y="386" class="tf">ARR_TIME<tspan x="221" class="ty">INT</tspan></text><text x="13" y="411" class="tf">ARR_DELAY<tspan x="221" class="ty">INT</tspan></text><text x="13" y="436" class="tf">CANCELLED<tspan x="221" class="ty">INT</tspan></text><text x="13" y="461" class="tf">CANCELLATION_CODE<tspan x="221" class="ty">VARCHAR</tspan></text><text x="13" y="486" class="tf">DIVERTED<tspan x="221" class="ty">INT</tspan></text><text x="13" y="511" class="tf">CRS_ELAPSED_TIME<tspan x="221" class="ty">INT</tspan></text><text x="13" y="536" class="tf">ACTUAL_ELAPSED_TIME<tspan x="221" class="ty">INT</tspan></text><text x="13" y="561" class="tf">AIR_TIME<tspan x="221" class="ty">INT</tspan></text><text x="13" y="586" class="tf">DISTANCE<tspan x="221" class="ty">INT</tspan></text><text x="13" y="611" class="tf">CARRIER_DELAY<tspan x="221" class="ty">INT</tspan></text><text x="13" y="636" class="tf">WEATHER_DELAY<tspan x="221" class="ty">INT</tspan></text><text x="13" y="661" class="tf">NAS_DELAY<tspan x="221" class="ty">INT</tspan></text><text x="13" y="686" class="tf">SECURITY_DELAY<tspan x="221" class="ty">INT</tspan></text><text x="13" y="711" class="tf">LATE_AIRCRAFT_DELAY<tspan x="221" class="ty">INT</tspan></text><text x="13" y="736" class="tf">UNNAMED:27<tspan x="221" class="ty">VARCHAR</tspan></text></svg><svg width="234" height="750" x="1088.33" y="-121" id="h553350507" class="t"><rect height="40" width="234" class="th"></rect><text x="13" y="25" class="tht">Flight_Data_2015</text><rect height="710" width="234" class="t-bg" y="40"></rect><text x="13" y="61" class="tf">FL_DATE<tspan x="221" class="ty">DATE</tspan></text><text x="13" y="86" class="tf">OP_CARRIER<tspan x="221" class="ty">VARCHAR</tspan></text><text x="13" y="111" class="tf">OP_CARRIER_FL_NUM<tspan x="221" class="ty">INT</tspan></text><text x="13" y="136" class="tf">ORIGIN<tspan x="221" class="ty">VARCHAR</tspan></text><text x="13" y="161" class="tf">DEST<tspan x="221" class="ty">VARCHAR</tspan></text><text x="13" y="186" class="tf">CRS_DEP_TIME<tspan x="221" class="ty">INT</tspan></text><text x="13" y="211" class="tf">DEP_TIME<tspan x="221" class="ty">INT</tspan></text><text x="13" y="236" class="tf">DEP_DELAY<tspan x="221" class="ty">INT</tspan></text><text x="13" y="261" class="tf">TAXI_OUT<tspan x="221" class="ty">INT</tspan></text><text x="13" y="286" class="tf">WHEELS_OFF<tspan x="221" class="ty">INT</tspan></text><text x="13" y="311" class="tf">WHEELS_ON<tspan x="221" class="ty">INT</tspan></text><text x="13" y="336" class="tf">TAXI_IN<tspan x="221" class="ty">INT</tspan></text><text x="13" y="361" class="tf">CRS_ARR_TIME<tspan x="221" class="ty">INT</tspan></text><text x="13" y="386" class="tf">ARR_TIME<tspan x="221" class="ty">INT</tspan></text><text x="13" y="411" class="tf">ARR_DELAY<tspan x="221" class="ty">INT</tspan></text><text x="13" y="436" class="tf">CANCELLED<tspan x="221" class="ty">INT</tspan></text><text x="13" y="461" class="tf">CANCELLATION_CODE<tspan x="221" class="ty">VARCHAR</tspan></text><text x="13" y="486" class="tf">DIVERTED<tspan x="221" class="ty">INT</tspan></text><text x="13" y="511" class="tf">CRS_ELAPSED_TIME<tspan x="221" class="ty">INT</tspan></text><text x="13" y="536" class="tf">ACTUAL_ELAPSED_TIME<tspan x="221" class="ty">INT</tspan></text><text x="13" y="561" class="tf">AIR_TIME<tspan x="221" class="ty">INT</tspan></text><text x="13" y="586" class="tf">DISTANCE<tspan x="221" class="ty">INT</tspan></text><text x="13" y="611" class="tf">CARRIER_DELAY<tspan x="221" class="ty">INT</tspan></text><text x="13" y="636" class="tf">WEATHER_DELAY<tspan x="221" class="ty">INT</tspan></text><text x="13" y="661" class="tf">NAS_DELAY<tspan x="221" class="ty">INT</tspan></text><text x="13" y="686" class="tf">SECURITY_DELAY<tspan x="221" class="ty">INT</tspan></text><text x="13" y="711" class="tf">LATE_AIRCRAFT_DELAY<tspan x="221" class="ty">INT</tspan></text><text x="13" y="736" class="tf">UNNAMED:27<tspan x="221" class="ty">VARCHAR</tspan></text></svg><svg width="234" height="750" x="1438" y="-116.67" id="h2580313388" class="t"><rect height="40" width="234" class="th"></rect><text x="13" y="25" class="tht">Flight_Data_2016</text><rect height="710" width="234" class="t-bg" y="40"></rect><text x="13" y="61" class="tf">FL_DATE<tspan x="221" class="ty">DATE</tspan></text><text x="13" y="86" class="tf">OP_CARRIER<tspan x="221" class="ty">VARCHAR</tspan></text><text x="13" y="111" class="tf">OP_CARRIER_FL_NUM<tspan x="221" class="ty">INT</tspan></text><text x="13" y="136" class="tf">ORIGIN<tspan x="221" class="ty">VARCHAR</tspan></text><text x="13" y="161" class="tf">DEST<tspan x="221" class="ty">VARCHAR</tspan></text><text x="13" y="186" class="tf">CRS_DEP_TIME<tspan x="221" class="ty">INT</tspan></text><text x="13" y="211" class="tf">DEP_TIME<tspan x="221" class="ty">INT</tspan></text><text x="13" y="236" class="tf">DEP_DELAY<tspan x="221" class="ty">INT</tspan></text><text x="13" y="261" class="tf">TAXI_OUT<tspan x="221" class="ty">INT</tspan></text><text x="13" y="286" class="tf">WHEELS_OFF<tspan x="221" class="ty">INT</tspan></text><text x="13" y="311" class="tf">WHEELS_ON<tspan x="221" class="ty">INT</tspan></text><text x="13" y="336" class="tf">TAXI_IN<tspan x="221" class="ty">INT</tspan></text><text x="13" y="361" class="tf">CRS_ARR_TIME<tspan x="221" class="ty">INT</tspan></text><text x="13" y="386" class="tf">ARR_TIME<tspan x="221" class="ty">INT</tspan></text><text x="13" y="411" class="tf">ARR_DELAY<tspan x="221" class="ty">INT</tspan></text><text x="13" y="436" class="tf">CANCELLED<tspan x="221" class="ty">INT</tspan></text><text x="13" y="461" class="tf">CANCELLATION_CODE<tspan x="221" class="ty">VARCHAR</tspan></text><text x="13" y="486" class="tf">DIVERTED<tspan x="221" class="ty">INT</tspan></text><text x="13" y="511" class="tf">CRS_ELAPSED_TIME<tspan x="221" class="ty">INT</tspan></text><text x="13" y="536" class="tf">ACTUAL_ELAPSED_TIME<tspan x="221" class="ty">INT</tspan></text><text x="13" y="561" class="tf">AIR_TIME<tspan x="221" class="ty">INT</tspan></text><text x="13" y="586" class="tf">DISTANCE<tspan x="221" class="ty">INT</tspan></text><text x="13" y="611" class="tf">CARRIER_DELAY<tspan x="221" class="ty">INT</tspan></text><text x="13" y="636" class="tf">WEATHER_DELAY<tspan x="221" class="ty">INT</tspan></text><text x="13" y="661" class="tf">NAS_DELAY<tspan x="221" class="ty">INT</tspan></text><text x="13" y="686" class="tf">SECURITY_DELAY<tspan x="221" class="ty">INT</tspan></text><text x="13" y="711" class="tf">LATE_AIRCRAFT_DELAY<tspan x="221" class="ty">INT</tspan></text><text x="13" y="736" class="tf">UNNAMED:27<tspan x="221" class="ty">VARCHAR</tspan></text></svg><svg width="234" height="750" x="1808.33" y="-119.67" id="h4117900322" class="t"><rect height="40" width="234" class="th"></rect><text x="13" y="25" class="tht">Flight_Data_2017</text><rect height="710" width="234" class="t-bg" y="40"></rect><text x="13" y="61" class="tf">FL_DATE<tspan x="221" class="ty">DATE</tspan></text><text x="13" y="86" class="tf">OP_CARRIER<tspan x="221" class="ty">VARCHAR</tspan></text><text x="13" y="111" class="tf">OP_CARRIER_FL_NUM<tspan x="221" class="ty">INT</tspan></text><text x="13" y="136" class="tf">ORIGIN<tspan x="221" class="ty">VARCHAR</tspan></text><text x="13" y="161" class="tf">DEST<tspan x="221" class="ty">VARCHAR</tspan></text><text x="13" y="186" class="tf">CRS_DEP_TIME<tspan x="221" class="ty">INT</tspan></text><text x="13" y="211" class="tf">DEP_TIME<tspan x="221" class="ty">TIME</tspan></text><text x="13" y="236" class="tf">DEP_DELAY<tspan x="221" class="ty">INT</tspan></text><text x="13" y="261" class="tf">TAXI_OUT<tspan x="221" class="ty">INT</tspan></text><text x="13" y="286" class="tf">WHEELS_OFF<tspan x="221" class="ty">INT</tspan></text><text x="13" y="311" class="tf">WHEELS_ON<tspan x="221" class="ty">INT</tspan></text><text x="13" y="336" class="tf">TAXI_IN<tspan x="221" class="ty">INT</tspan></text><text x="13" y="361" class="tf">CRS_ARR_TIME<tspan x="221" class="ty">INT</tspan></text><text x="13" y="386" class="tf">ARR_TIME<tspan x="221" class="ty">INT</tspan></text><text x="13" y="411" class="tf">ARR_DELAY<tspan x="221" class="ty">INT</tspan></text><text x="13" y="436" class="tf">CANCELLED<tspan x="221" class="ty">INT</tspan></text><text x="13" y="461" class="tf">CANCELLATION_CODE<tspan x="221" class="ty">VARCHAR</tspan></text><text x="13" y="486" class="tf">DIVERTED<tspan x="221" class="ty">INT</tspan></text><text x="13" y="511" class="tf">CRS_ELAPSED_TIME<tspan x="221" class="ty">INT</tspan></text><text x="13" y="536" class="tf">ACTUAL_ELAPSED_TIME<tspan x="221" class="ty">INT</tspan></text><text x="13" y="561" class="tf">AIR_TIME<tspan x="221" class="ty">INT</tspan></text><text x="13" y="586" class="tf">DISTANCE<tspan x="221" class="ty">INT</tspan></text><text x="13" y="611" class="tf">CARRIER_DELAY<tspan x="221" class="ty">INT</tspan></text><text x="13" y="636" class="tf">WEATHER_DELAY<tspan x="221" class="ty">INT</tspan></text><text x="13" y="661" class="tf">NAS_DELAY<tspan x="221" class="ty">INT</tspan></text><text x="13" y="686" class="tf">SECURITY_DELAY<tspan x="221" class="ty">INT</tspan></text><text x="13" y="711" class="tf">LATE_AIRCRAFT_DELAY<tspan x="221" class="ty">INT</tspan></text><text x="13" y="736" class="tf">UNNAMED:27<tspan x="221" class="ty">VARCHAR</tspan></text></svg><svg width="234" height="750" x="2243.67" y="-132.33" id="h441813330" class="t"><rect height="40" width="234" class="th"></rect><text x="13" y="25" class="tht">Flight_Data_2018</text><rect height="710" width="234" class="t-bg" y="40"></rect><text x="13" y="61" class="tf">FL_DATE<tspan x="221" class="ty">DATE</tspan></text><text x="13" y="86" class="tf">OP_CARRIER<tspan x="221" class="ty">VARCHAR</tspan></text><text x="13" y="111" class="tf">OP_CARRIER_FL_NUM<tspan x="221" class="ty">INT</tspan></text><text x="13" y="136" class="tf">ORIGIN<tspan x="221" class="ty">VARCHAR</tspan></text><text x="13" y="161" class="tf">DEST<tspan x="221" class="ty">VARCHAR</tspan></text><text x="13" y="186" class="tf">CRS_DEP_TIME<tspan x="221" class="ty">INT</tspan></text><text x="13" y="211" class="tf">DEP_TIME<tspan x="221" class="ty">INT</tspan></text><text x="13" y="236" class="tf">DEP_DELAY<tspan x="221" class="ty">INT</tspan></text><text x="13" y="261" class="tf">TAXI_OUT<tspan x="221" class="ty">INT</tspan></text><text x="13" y="286" class="tf">WHEELS_OFF<tspan x="221" class="ty">INT</tspan></text><text x="13" y="311" class="tf">WHEELS_ON<tspan x="221" class="ty">INT</tspan></text><text x="13" y="336" class="tf">TAXI_IN<tspan x="221" class="ty">INT</tspan></text><text x="13" y="361" class="tf">CRS_ARR_TIME<tspan x="221" class="ty">INT</tspan></text><text x="13" y="386" class="tf">ARR_TIME<tspan x="221" class="ty">INT</tspan></text><text x="13" y="411" class="tf">ARR_DELAY<tspan x="221" class="ty">INT</tspan></text><text x="13" y="436" class="tf">CANCELLED<tspan x="221" class="ty">INT</tspan></text><text x="13" y="461" class="tf">CANCELLATION_CODE<tspan x="221" class="ty">VARCHAR</tspan></text><text x="13" y="486" class="tf">DIVERTED<tspan x="221" class="ty">INT</tspan></text><text x="13" y="511" class="tf">CRS_ELAPSED_TIME<tspan x="221" class="ty">INT</tspan></text><text x="13" y="536" class="tf">ACTUAL_ELAPSED_TIME<tspan x="221" class="ty">INT</tspan></text><text x="13" y="561" class="tf">AIR_TIME<tspan x="221" class="ty">INT</tspan></text><text x="13" y="586" class="tf">DISTANCE<tspan x="221" class="ty">INT</tspan></text><text x="13" y="611" class="tf">CARRIER_DELAY<tspan x="221" class="ty">INT</tspan></text><text x="13" y="636" class="tf">WEATHER_DELAY<tspan x="221" class="ty">INT</tspan></text><text x="13" y="661" class="tf">NAS_DELAY<tspan x="221" class="ty">INT</tspan></text><text x="13" y="686" class="tf">SECURITY_DELAY<tspan x="221" class="ty">INT</tspan></text><text x="13" y="711" class="tf">LATE_AIRCRAFT_DELAY<tspan x="221" class="ty">INT</tspan></text><text x="13" y="736" class="tf">UNNAMED:27<tspan x="221" class="ty">VARCHAR</tspan></text></svg></g></g></svg>